<svg xmlns="http://www.w3.org/2000/svg" version="1.1" xmlns:xlink="http://www.w3.org/1999/xlink" xmlns:svgjs="http://svgjs.com/svgjs" width="196" height="196"><svg width="196" height="196" viewBox="0 0 196 196" fill="none" xmlns="http://www.w3.org/2000/svg">
<rect x="3.5" y="3.5" width="189" height="189" fill="#2048D7" stroke="white" stroke-width="7"></rect>
<rect x="7" y="98" width="182" height="91" fill="#2086D7"></rect>
<path d="M55.808 148V64.504H27.408V46.328H103.378V64.504H74.978V148H55.808ZM169.398 130.25C166.369 136.119 162.109 140.947 156.618 144.734C151.222 148.426 144.453 150.272 136.312 150.272C130.916 150.272 125.946 149.373 121.402 147.574C116.953 145.681 113.071 143.077 109.758 139.764C106.539 136.451 103.983 132.569 102.09 128.12C100.291 123.576 99.392 118.606 99.392 113.21C99.392 107.814 100.291 102.844 102.09 98.3C103.983 93.756 106.539 89.8747 109.758 86.656C113.071 83.3427 116.953 80.7867 121.402 78.988C125.946 77.0947 130.916 76.148 136.312 76.148C144.359 76.148 151.127 77.994 156.618 81.686C162.109 85.378 166.132 90.1587 168.688 96.028L151.648 103.128C150.039 99.9093 147.956 97.4953 145.4 95.886C142.939 94.182 139.815 93.33 136.028 93.33C133.567 93.33 131.247 93.8033 129.07 94.75C126.893 95.6967 124.952 97.022 123.248 98.726C121.639 100.43 120.361 102.513 119.414 104.974C118.467 107.435 117.994 110.181 117.994 113.21C117.994 116.239 118.467 118.985 119.414 121.446C120.361 123.907 121.639 125.99 123.248 127.694C124.952 129.398 126.893 130.723 129.07 131.67C131.247 132.617 133.567 133.09 136.028 133.09C139.909 133.09 143.175 132.238 145.826 130.534C148.571 128.735 150.749 126.179 152.358 122.866L169.398 130.25Z" fill="white"></path>
</svg><style>@media (prefers-color-scheme: light) { :root { filter: none; } }
</style></svg>