<svg xmlns="http://www.w3.org/2000/svg" version="1.1" xmlns:xlink="http://www.w3.org/1999/xlink" xmlns:svgjs="http://svgjs.com/svgjs" width="182" height="182"><svg width="182" height="182" viewBox="0 0 182 182" fill="none" xmlns="http://www.w3.org/2000/svg">
<rect width="182" height="182" fill="#2048D7"></rect>
<rect y="91" width="182" height="91" fill="#2086D7"></rect>
<path d="M48.808 141V57.504H20.408V39.328H96.378V57.504H67.978V141H48.808ZM162.398 123.25C159.369 129.119 155.109 133.947 149.618 137.734C144.222 141.426 137.453 143.272 129.312 143.272C123.916 143.272 118.946 142.373 114.402 140.574C109.953 138.681 106.071 136.077 102.758 132.764C99.5393 129.451 96.9833 125.569 95.09 121.12C93.2913 116.576 92.392 111.606 92.392 106.21C92.392 100.814 93.2913 95.844 95.09 91.3C96.9833 86.756 99.5393 82.8747 102.758 79.656C106.071 76.3427 109.953 73.7867 114.402 71.988C118.946 70.0947 123.916 69.148 129.312 69.148C137.359 69.148 144.127 70.994 149.618 74.686C155.109 78.378 159.132 83.1587 161.688 89.028L144.648 96.128C143.039 92.9093 140.956 90.4953 138.4 88.886C135.939 87.182 132.815 86.33 129.028 86.33C126.567 86.33 124.247 86.8033 122.07 87.75C119.893 88.6967 117.952 90.022 116.248 91.726C114.639 93.43 113.361 95.5127 112.414 97.974C111.467 100.435 110.994 103.181 110.994 106.21C110.994 109.239 111.467 111.985 112.414 114.446C113.361 116.907 114.639 118.99 116.248 120.694C117.952 122.398 119.893 123.723 122.07 124.67C124.247 125.617 126.567 126.09 129.028 126.09C132.909 126.09 136.175 125.238 138.826 123.534C141.571 121.735 143.749 119.179 145.358 115.866L162.398 123.25Z" fill="white"></path>
</svg><style>@media (prefers-color-scheme: light) { :root { filter: none; } }
</style></svg>